<?xml version="1.0" standalone="no"?>
<!DOCTYPE svg PUBLIC "-//W3C//DTD SVG 20010904//EN"
 "http://www.w3.org/TR/2001/REC-SVG-20010904/DTD/svg10.dtd">
<svg version="1.0" xmlns="http://www.w3.org/2000/svg"
 width="2200.000000pt" height="1467.000000pt" viewBox="0 0 2200.000000 1467.000000"
 preserveAspectRatio="xMidYMid meet">

<g transform="translate(0.000000,1467.000000) scale(0.100000,-0.100000)"
fill="#000000" stroke="none">
<path d="M10660 13259 c-1231 -70 -2427 -530 -3390 -1307 -352 -284 -735 -681
-1016 -1054 -395 -524 -737 -1186 -915 -1770 l-32 -108 -412 0 c-386 0 -413
-1 -428 -18 -16 -17 -17 -147 -17 -1669 0 -1586 1 -1651 18 -1666 17 -15 61
-17 429 -17 l410 0 32 -107 c48 -159 150 -427 231 -608 414 -931 1054 -1734
1875 -2352 462 -348 1023 -647 1588 -848 1014 -358 2155 -429 3222 -200 1523
328 2854 1244 3720 2560 175 266 355 605 488 915 75 177 180 463 212 578 l18
62 412 0 c386 0 413 1 428 18 16 17 17 147 17 1669 0 1586 -1 1651 -18 1666
-17 15 -61 17 -429 17 l-410 0 -18 63 c-9 34 -44 139 -77 232 -438 1236 -1278
2295 -2388 3012 -1043 673 -2297 1003 -3550 932z m900 -264 c557 -56 1005
-163 1505 -360 744 -292 1401 -721 1960 -1280 616 -617 1084 -1368 1366 -2193
l48 -143 -45 3 -46 3 -53 150 c-355 1022 -993 1906 -1870 2590 -132 103 -468
329 -616 413 -1114 638 -2385 877 -3647 687 -1028 -154 -1994 -597 -2801
-1283 -744 -632 -1324 -1480 -1646 -2407 l-53 -150 -51 -3 -51 -3 55 160 c474
1380 1465 2528 2766 3204 724 377 1451 577 2294 631 141 9 737 -4 885 -19z
m-10 -150 c548 -58 1005 -168 1500 -362 215 -84 603 -276 804 -398 1110 -670
1932 -1669 2375 -2888 33 -93 61 -171 61 -173 0 -2 -442 -4 -982 -4 l-983 0
-55 102 c-64 118 -204 334 -292 452 -361 476 -840 868 -1373 1122 -1428 679
-3126 386 -4240 -731 -253 -253 -478 -552 -635 -843 l-55 -102 -977 0 c-538 0
-978 2 -978 4 0 2 28 80 61 173 391 1075 1080 1984 2004 2645 697 498 1521
835 2355 962 154 23 406 51 545 60 149 9 717 -3 865 -19z m-74 -1874 c722 -98
1383 -394 1929 -867 316 -273 616 -644 814 -1006 l43 -78 -40 0 -40 0 -62 108
c-492 846 -1297 1456 -2235 1691 -316 79 -534 105 -880 105 -272 0 -440 -14
-655 -55 -1044 -200 -1927 -825 -2460 -1741 l-62 -108 -45 0 -45 0 43 78 c112
205 287 456 445 637 321 369 686 651 1129 875 436 220 853 336 1385 384 25 2
167 2 315 1 200 -3 309 -9 421 -24z m-38 -315 c179 -24 320 -52 462 -93 806
-231 1491 -741 1934 -1438 31 -49 56 -93 56 -97 0 -4 -1298 -8 -2885 -8 -1587
0 -2885 4 -2885 8 0 11 99 167 163 256 153 216 409 486 622 657 495 398 1117
659 1710 718 61 6 126 13 145 15 86 10 562 -3 678 -18z m-5387 -2044 c196 -52
366 -137 480 -240 63 -57 78 -87 59 -121 -12 -22 -300 -346 -351 -393 -46 -44
-75 -37 -145 31 -107 103 -248 153 -371 131 -37 -6 -79 -18 -94 -25 -91 -47
-100 -174 -17 -225 39 -24 130 -60 333 -133 246 -89 348 -148 459 -268 79 -86
139 -200 162 -309 21 -99 14 -294 -15 -403 -39 -148 -133 -295 -251 -393 -74
-61 -255 -148 -365 -176 -122 -31 -414 -33 -545 -4 -116 25 -220 61 -315 109
-108 54 -157 88 -242 171 -108 103 -109 99 78 297 83 87 170 179 192 204 67
71 81 70 176 -18 136 -125 283 -186 420 -173 123 11 191 71 191 167 0 100 -66
146 -350 243 -353 121 -498 223 -597 419 -51 103 -73 200 -73 329 0 149 20
243 77 358 40 80 62 109 138 185 129 129 245 191 436 234 132 29 137 30 304
26 110 -2 170 -8 226 -23z m2523 -1241 l461 -1195 3 1179 c2 1079 3 1180 19
1197 15 17 41 18 394 18 326 0 380 -2 393 -15 15 -15 69 -177 343 -1026 65
-202 121 -362 124 -355 4 6 100 313 214 681 114 369 214 680 221 693 l14 22
388 0 c213 0 392 -4 399 -8 6 -4 17 -20 22 -35 15 -39 15 -2385 0 -2424 -5
-15 -16 -31 -22 -35 -7 -4 -129 -8 -273 -8 -248 0 -262 1 -279 20 -17 19 -18
55 -13 702 l5 683 -199 -595 c-117 -352 -205 -600 -215 -607 -13 -10 -87 -13
-288 -13 -246 0 -273 2 -287 18 -9 9 -100 274 -202 587 -103 314 -188 575
-191 580 -2 6 -1 -294 2 -665 6 -660 5 -675 -14 -692 -18 -16 -62 -18 -614
-15 l-594 2 -87 230 -86 230 -409 3 -408 2 -80 -232 -80 -233 -319 -3 c-329
-2 -346 -1 -346 38 0 17 927 2407 950 2451 10 19 21 19 302 17 l292 -3 460
-1194z m4467 1171 c344 -83 537 -271 594 -577 24 -124 16 -358 -15 -465 -84
-293 -338 -487 -705 -540 -38 -5 -145 -10 -237 -10 l-168 0 0 -426 c0 -274 -4
-432 -10 -445 -10 -18 -24 -19 -313 -19 -222 0 -306 3 -315 12 -18 18 -17
2469 1 2487 9 9 126 11 547 8 501 -3 540 -5 621 -25z m1387 16 c9 -9 12 -235
12 -955 l0 -943 445 0 c432 0 446 -1 465 -20 19 -19 20 -33 20 -281 0 -160 -4
-268 -10 -280 -10 -19 -30 -19 -783 -19 -588 0 -776 3 -785 12 -17 17 -17
2469 0 2486 9 9 93 12 318 12 225 0 309 -3 318 -12z m2620 0 c17 -17 17 -549
0 -566 -9 -9 -130 -12 -485 -12 l-473 0 0 -175 0 -175 444 0 c391 0 446 -2
460 -16 14 -13 16 -52 16 -273 0 -186 -3 -260 -12 -269 -9 -9 -125 -12 -460
-12 l-448 0 0 -200 0 -200 497 0 c448 0 498 -2 515 -17 17 -15 18 -37 18 -284
0 -230 -2 -270 -16 -283 -14 -14 -101 -16 -808 -16 -603 0 -795 3 -804 12 -17
17 -17 2469 0 2486 17 17 1539 17 1556 0z m-11344 -3044 c351 -1030 997 -1929
1881 -2619 129 -101 467 -328 610 -410 1188 -681 2550 -908 3887 -649 942 182
1821 608 2567 1242 751 637 1338 1502 1657 2436 l46 136 44 0 43 0 -49 -142
c-506 -1485 -1606 -2700 -3030 -3349 -763 -347 -1518 -509 -2365 -509 -923 1
-1752 199 -2570 615 -503 256 -909 541 -1327 931 -662 619 -1185 1430 -1482
2294 l-55 160 48 0 49 0 46 -136z m2026 24 c81 -149 247 -397 351 -527 338
-424 754 -763 1234 -1006 1232 -626 2722 -515 3845 287 467 333 852 769 1124
1271 l48 87 979 0 c588 0 979 -4 979 -9 0 -5 -28 -85 -61 -178 -389 -1071
-1077 -1980 -1993 -2638 -703 -503 -1527 -841 -2366 -969 -337 -51 -469 -61
-865 -61 -396 0 -528 10 -865 61 -839 128 -1663 466 -2366 969 -916 658 -1604
1567 -1993 2638 -33 93 -61 173 -61 178 0 5 389 9 974 9 l974 0 62 -112z m160
5 c492 -847 1297 -1457 2235 -1692 316 -79 534 -105 880 -105 272 0 440 14
655 55 1044 200 1927 825 2460 1742 l62 107 39 0 c21 0 39 -3 39 -7 0 -14
-117 -215 -195 -333 -216 -329 -498 -634 -817 -882 -440 -343 -984 -593 -1521
-697 -279 -54 -403 -66 -727 -66 -324 0 -448 12 -727 66 -941 183 -1806 767
-2338 1579 -78 118 -195 319 -195 333 0 4 20 7 44 7 l44 0 62 -107z m6000 99
c0 -4 -25 -48 -56 -97 -349 -549 -861 -994 -1450 -1260 -473 -212 -841 -290
-1379 -290 -538 0 -906 78 -1379 290 -589 266 -1101 711 -1450 1260 -31 49
-56 93 -56 97 0 4 1298 8 2885 8 1587 0 2885 -4 2885 -8z"/>
<path d="M10921 12371 l-74 -6 -57 -220 c-31 -121 -60 -233 -64 -250 -10 -38
-10 -37 -81 150 -31 82 -70 185 -87 229 l-30 78 -132 -7 c-72 -4 -135 -11
-140 -15 -9 -9 30 -845 40 -862 6 -10 174 0 185 11 4 3 1 109 -7 235 -8 126
-12 231 -10 233 2 2 19 -38 39 -89 19 -51 54 -141 77 -200 l41 -108 92 0 c51
0 97 4 104 8 6 4 38 102 71 217 l59 210 6 -80 c4 -44 9 -153 13 -242 l6 -163
93 0 c62 0 96 4 102 13 7 8 3 156 -12 437 -13 234 -24 426 -24 428 -1 3 -125
-1 -210 -7z"/>
<path d="M11409 12368 c-15 -93 -127 -864 -125 -865 1 -1 49 -9 106 -18 77
-12 105 -13 111 -4 4 6 15 72 25 145 10 74 20 137 23 142 3 5 42 4 86 -1 207
-25 339 73 353 262 5 76 -8 129 -44 178 -55 73 -127 102 -334 132 -80 12 -157
24 -172 27 -16 3 -28 4 -29 2z m326 -257 c25 -14 30 -24 33 -63 3 -40 -1 -49
-24 -67 -23 -18 -39 -21 -93 -19 l-66 3 1 40 c0 22 4 62 8 89 l8 48 51 -6 c29
-4 66 -15 82 -25z"/>
<path d="M12205 12227 c-31 -85 -245 -804 -243 -815 3 -18 508 -177 519 -164
13 15 58 177 50 185 -4 4 -72 27 -150 51 -78 24 -144 46 -146 48 -1 1 40 140
91 308 52 168 94 312 94 321 0 11 -18 21 -57 33 -32 9 -80 23 -106 31 -37 11
-49 11 -52 2z"/>
<path d="M9630 12183 c-47 -13 -86 -26 -88 -27 -1 -2 -22 -194 -47 -427 -24
-233 -47 -441 -50 -461 -7 -47 -5 -47 126 -12 l97 26 7 89 7 89 42 11 c22 6
80 21 128 35 48 13 93 24 100 24 7 0 33 -30 58 -66 24 -36 47 -67 51 -70 4 -2
28 3 55 10 27 8 75 21 107 30 31 9 57 21 57 27 0 17 -543 749 -554 748 -6 -1
-49 -12 -96 -26z m150 -378 c35 -53 60 -98 57 -101 -2 -3 -27 -11 -53 -18 -27
-7 -59 -16 -71 -20 -23 -7 -23 -7 -17 71 6 93 14 163 18 163 2 0 32 -43 66
-95z"/>
<path d="M12894 11998 c-20 -31 -364 -761 -364 -771 0 -9 415 -213 492 -242
13 -5 25 10 57 74 23 44 41 86 41 94 0 7 -70 46 -155 86 -85 41 -155 79 -155
85 0 17 48 116 56 116 4 0 70 -30 146 -66 76 -37 140 -65 142 -63 15 17 76
154 74 166 -2 8 -63 43 -136 78 -73 35 -135 65 -138 68 -3 2 7 29 22 59 l27
55 144 -68 c79 -38 150 -69 157 -69 16 0 92 169 80 179 -7 7 -423 208 -470
228 -7 2 -16 -2 -20 -9z"/>
<path d="M8932 11940 c-115 -17 -243 -107 -285 -200 -56 -121 -1 -279 118
-343 35 -19 53 -21 145 -18 195 7 191 7 206 -14 21 -29 13 -65 -19 -89 -22
-16 -43 -21 -90 -21 -34 1 -76 4 -93 9 l-32 8 -32 -96 c-17 -53 -30 -102 -27
-109 14 -38 178 -49 276 -18 208 65 306 229 241 404 -49 129 -149 177 -332
157 -108 -12 -133 -9 -149 21 -25 48 60 107 136 94 82 -13 76 -17 106 75 34
104 35 118 7 129 -38 14 -120 19 -176 11z"/>
<path d="M10944 10296 l-58 -155 -71 -5 c-38 -3 -114 -9 -169 -13 l-98 -8 131
-104 c118 -94 130 -106 124 -129 -3 -14 -23 -86 -43 -161 -21 -75 -36 -137
-35 -139 2 -2 64 37 139 87 74 50 138 91 141 91 3 0 67 -41 141 -91 75 -50
137 -89 139 -87 1 2 -14 64 -35 139 -20 75 -40 147 -43 161 -6 23 6 35 124
129 l131 104 -98 8 c-55 4 -131 10 -169 13 l-71 5 -58 155 c-32 85 -60 154
-61 154 -1 0 -29 -69 -61 -154z"/>
<path d="M10183 9813 l-41 -108 -117 -7 c-64 -4 -119 -8 -121 -10 -2 -2 39
-37 90 -77 l94 -74 -30 -110 c-16 -60 -28 -113 -26 -118 2 -5 47 20 101 56
l97 65 97 -65 c54 -36 99 -61 101 -56 2 5 -10 58 -26 118 l-30 110 94 74 c51
40 92 75 90 77 -2 2 -57 6 -121 10 l-117 7 -41 108 c-22 59 -43 107 -47 107
-4 0 -25 -48 -47 -107z"/>
<path d="M11723 9813 l-41 -108 -117 -7 c-64 -4 -119 -8 -121 -10 -2 -2 39
-37 90 -77 l94 -74 -30 -110 c-16 -60 -28 -113 -26 -118 2 -5 47 20 101 56
l97 65 97 -65 c54 -36 99 -61 101 -56 2 5 -10 58 -26 118 l-30 110 94 74 c51
40 92 75 90 77 -2 2 -57 6 -121 10 l-117 7 -41 108 c-22 59 -43 107 -47 107
-4 0 -25 -48 -47 -107z"/>
<path d="M7694 7417 l-110 -322 219 -3 c121 -1 221 -1 223 0 3 4 -209 635
-216 641 -3 3 -55 -140 -116 -316z"/>
<path d="M12510 7760 l0 -252 153 4 c125 4 162 8 208 26 102 40 149 113 149
229 0 87 -25 142 -80 182 -53 38 -102 48 -282 57 l-148 7 0 -253z"/>
<path d="M12746 3502 c-126 -59 -231 -113 -234 -120 -6 -18 350 -782 365 -782
23 0 495 224 501 238 7 19 -69 172 -85 172 -7 0 -81 -31 -164 -70 -83 -38
-152 -70 -153 -70 -10 0 -56 123 -50 130 5 4 65 33 134 64 69 32 129 62 134
66 10 10 -48 153 -68 169 -7 6 -61 -14 -150 -56 -76 -35 -142 -60 -147 -56 -4
4 -17 30 -28 56 l-21 48 118 55 c64 31 132 62 150 69 17 8 32 18 32 24 0 5
-16 46 -36 90 -24 54 -42 81 -53 81 -9 -1 -119 -49 -245 -108z"/>
<path d="M8972 3562 c-141 -51 -217 -226 -152 -352 12 -24 58 -81 101 -126 83
-87 95 -116 62 -149 -21 -21 -71 -15 -112 14 -15 11 -41 45 -57 76 -16 30 -35
55 -41 55 -30 0 -193 -73 -193 -86 0 -8 12 -38 26 -66 72 -143 267 -246 412
-218 92 17 147 57 190 138 41 78 48 126 28 196 -14 48 -30 71 -106 151 -63 65
-90 101 -90 118 0 84 135 45 176 -50 8 -17 17 -34 22 -36 4 -3 48 12 97 33
108 46 113 57 61 136 -94 141 -285 215 -424 166z"/>
<path d="M9747 3253 c-24 -32 -144 -195 -267 -363 -123 -168 -228 -311 -233
-318 -5 -7 -7 -15 -4 -18 5 -5 203 -64 214 -64 2 0 24 32 49 70 26 39 54 70
63 70 9 0 72 -15 141 -34 l125 -33 10 -89 10 -89 108 -29 c59 -16 110 -26 114
-23 8 9 -87 909 -97 920 -5 6 -173 57 -187 57 -1 0 -22 -26 -46 -57z m72 -370
c5 -59 7 -110 5 -112 -6 -7 -144 31 -144 40 0 14 121 191 127 186 2 -3 8 -54
12 -114z"/>
<path d="M12008 3252 c-62 -18 -88 -30 -88 -41 0 -9 53 -196 118 -416 88 -296
123 -401 135 -403 16 -3 497 135 509 147 7 6 -37 178 -48 190 -2 2 -72 -16
-155 -39 -104 -31 -152 -41 -157 -33 -4 6 -47 149 -96 317 -103 350 -79 320
-218 278z"/>
<path d="M10274 3158 c-8 -13 -53 -853 -46 -860 4 -3 48 -8 97 -10 l90 -3 8
125 c4 69 11 177 15 240 l7 115 55 -203 c30 -112 57 -207 60 -212 3 -5 51 -11
105 -12 l100 -3 80 199 c44 110 81 191 83 180 1 -10 -4 -116 -12 -234 -8 -118
-11 -218 -8 -221 13 -13 193 -17 197 -5 5 14 45 734 45 808 l0 56 -112 7
c-187 12 -159 37 -259 -233 -48 -128 -89 -235 -91 -238 -3 -2 -34 107 -70 243
l-65 248 -39 6 c-63 11 -235 16 -240 7z"/>
<path d="M11413 3146 c-89 -12 -166 -25 -170 -29 -6 -6 102 -855 110 -863 3
-4 210 26 215 31 4 3 -23 220 -34 277 -5 25 -2 27 33 33 136 22 207 51 260
107 45 47 63 96 63 175 0 130 -43 214 -132 257 -76 36 -154 39 -345 12z m220
-187 c51 -23 61 -87 19 -129 -27 -26 -122 -57 -142 -45 -4 2 -10 33 -14 67 -4
35 -10 73 -13 85 -4 18 0 22 29 26 66 8 97 7 121 -4z"/>
<path d="M10030 5358 c0 -7 13 -61 29 -119 l29 -106 -94 -74 c-51 -40 -92 -75
-90 -77 2 -2 57 -6 121 -10 l117 -7 41 -107 c22 -60 43 -108 47 -108 4 0 25
48 47 108 l41 107 117 7 c64 4 119 8 121 10 2 2 -39 37 -90 77 l-94 74 30 110
c16 60 28 113 26 118 -2 5 -47 -20 -101 -56 l-97 -65 -88 58 c-114 77 -112 75
-112 60z"/>
<path d="M11570 5358 c0 -7 13 -61 29 -119 l29 -106 -94 -74 c-51 -40 -92 -75
-90 -77 2 -2 57 -6 121 -10 l117 -7 41 -107 c22 -60 43 -108 47 -108 4 0 25
48 47 108 l41 107 117 7 c64 4 119 8 121 10 2 2 -39 37 -90 77 l-94 74 30 110
c16 60 28 113 26 118 -2 5 -47 -20 -101 -56 l-97 -65 -88 58 c-114 77 -112 75
-112 60z"/>
<path d="M10725 5078 c2 -7 20 -74 40 -148 20 -74 38 -142 41 -151 3 -11 -37
-48 -127 -120 l-131 -104 98 -8 c55 -4 131 -10 169 -13 l71 -5 58 -155 c32
-85 60 -154 61 -154 1 0 29 69 61 154 l58 155 71 5 c38 3 114 9 169 13 l98 8
-131 104 c-118 94 -130 106 -124 129 3 14 23 86 43 161 21 75 36 137 35 139
-2 2 -64 -37 -139 -87 -74 -50 -138 -91 -141 -91 -3 0 -66 41 -140 90 -74 50
-137 90 -139 90 -3 0 -3 -6 -1 -12z"/>
</g>
</svg>
